<svg width="20" height="20" viewBox="0 0 20 20" fill="none" xmlns="http://www.w3.org/2000/svg">
<g id="iconamoon:notification-duotone">
<g id="Group">
<path id="Vector" opacity="0.16" d="M5 8.33333V15.8333H15V8.33333C15 7.00725 14.4732 5.73548 13.5355 4.79779C12.5979 3.86011 11.3261 3.33333 10 3.33333C8.67392 3.33333 7.40215 3.86011 6.46447 4.79779C5.52678 5.73548 5 7.00725 5 8.33333Z" fill="#2E2E2E"/>
<path id="Vector_2" d="M4.99967 15.8333V8.33333C4.99967 7.00725 5.52646 5.73548 6.46414 4.79779C7.40182 3.86011 8.67359 3.33333 9.99967 3.33333C11.3258 3.33333 12.5975 3.86011 13.5352 4.79779C14.4729 5.73548 14.9997 7.00725 14.9997 8.33333V15.8333M4.99967 15.8333H14.9997M4.99967 15.8333H3.33301M14.9997 15.8333H16.6663M9.16634 18.3333H10.833" stroke="#2E2E2E" stroke-width="1.2" stroke-linecap="round" stroke-linejoin="round"/>
<path id="Vector_3" d="M9.99935 3.33333C10.4596 3.33333 10.8327 2.96023 10.8327 2.5C10.8327 2.03976 10.4596 1.66666 9.99935 1.66666C9.53911 1.66666 9.16602 2.03976 9.16602 2.5C9.16602 2.96023 9.53911 3.33333 9.99935 3.33333Z" stroke="#2E2E2E" stroke-width="1.2"/>
<rect id="Rectangle 22475" width="6" height="6" rx="3" transform="matrix(1 0 0 -1 12 11)" fill="#E94D4E"/>
</g>
</g>
</svg>
