<svg width="40" height="40" viewBox="0 0 40 40" fill="none" xmlns="http://www.w3.org/2000/svg">
<path fill-rule="evenodd" clip-rule="evenodd" d="M34.7157 17.859L33.853 21.0787C32.8459 24.8372 32.3424 26.7164 31.2009 27.9352C30.2995 28.8976 29.133 29.571 27.8489 29.8705C27.6885 29.9079 27.5256 29.9367 27.3586 29.9573C25.8336 30.1454 23.9726 29.6468 20.5849 28.739C16.8265 27.732 14.9472 27.2284 13.7284 26.0869C12.7661 25.1855 12.0926 24.0191 11.7932 22.735C11.414 21.1087 11.9175 19.2294 12.9246 15.471L13.7874 12.2512C13.9322 11.7108 14.0666 11.2089 14.194 10.7426C14.9525 7.96587 15.4621 6.43822 16.4395 5.3947C17.3409 4.43234 18.5073 3.75887 19.7914 3.45947C21.4177 3.08027 23.297 3.58381 27.0554 4.59089C30.8139 5.59796 32.6931 6.1015 33.9119 7.24304C34.8743 8.14439 35.5478 9.31086 35.8472 10.595C36.2264 12.2213 35.7228 14.1005 34.7157 17.859ZM18.421 16.3431C18.5997 15.6762 19.2851 15.2805 19.9519 15.4592L28.0013 17.616C28.6682 17.7947 29.0639 18.4801 28.8852 19.1469C28.7065 19.8138 28.0211 20.2095 27.3543 20.0308L19.3049 17.874C18.6381 17.6953 18.2423 17.0099 18.421 16.3431ZM17.1263 21.1722C17.3049 20.5053 17.9904 20.1096 18.6572 20.2883L23.4868 21.5824C24.1536 21.7611 24.5494 22.4465 24.3707 23.1133C24.192 23.7801 23.5066 24.1759 22.8398 23.9972L18.0101 22.7031C17.3433 22.5244 16.9476 21.839 17.1263 21.1722Z" fill="#269DFF"/>
<path opacity="0.5" d="M27.3578 29.9574C27.0103 31.0213 26.3994 31.9838 25.578 32.7532C24.3591 33.8947 22.4799 34.3983 18.7214 35.4053C14.963 36.4124 13.0837 36.9159 11.4574 36.5367C10.1734 36.2373 9.00688 35.5639 8.10553 34.6015C6.96399 33.3827 6.46045 31.5035 5.45337 27.745L4.59064 24.5253C3.58356 20.7668 3.08002 18.8876 3.45922 17.2613C3.75863 15.9772 4.4321 14.8107 5.39445 13.9093C6.61326 12.7678 8.4925 12.2643 12.251 11.2572C12.962 11.0667 13.6058 10.8942 14.1934 10.7422C14.1934 10.7421 14.1933 10.7424 14.1934 10.7422C14.066 11.2086 13.9315 11.7109 13.7867 12.2513L12.924 15.4711C11.9169 19.2296 11.4134 21.1088 11.7926 22.7351C12.092 24.0192 12.7654 25.1857 13.7278 26.087C14.9466 27.2285 16.8258 27.7321 20.5843 28.7392C23.9718 29.6469 25.8328 30.1455 27.3578 29.9574Z" fill="#269DFF"/>
</svg>
